<svg xmlns="http://www.w3.org/2000/svg" version="1.1" xmlns:xlink="http://www.w3.org/1999/xlink" xmlns:svgjs="http://svgjs.dev/svgjs" width="408" height="408"><svg width="408" height="408" viewBox="0 0 408 408" fill="none" xmlns="http://www.w3.org/2000/svg">
<path d="M133.493 159.482C133.493 149.754 125.28 142.631 125.28 133.121C125.28 122.559 125.28 111.997 125.28 101.435C125.28 87.5392 127.358 60.0074 138.968 49.2459C147.466 41.369 154.72 33.06 163.605 25.2816C172.549 17.4521 184.066 12.7029 193.11 5.57752C201.855 -1.31272 198.944 16.3514 199.193 20.4887C199.82 30.9129 204.668 39.6222 204.668 50.5773C204.668 62.8701 204.668 75.163 204.668 87.4558C204.668 97.6967 199.023 105.632 196.608 115.148C194.761 122.424 196.455 131.65 196.455 139.112C196.455 149.812 208.349 130.132 212.881 125.932C230.576 109.53 241.82 98.6028 270.368 97.1747C281.28 96.6289 354.548 78.9071 357.816 88.9203C363.748 107.095 345.501 127.431 329.073 136.583C320.205 141.523 308.506 144.13 299.112 148.698C289.121 153.557 280.216 160.018 270.368 164.807C263.528 168.134 256.082 173.32 250.597 178.121C246.843 181.407 262.833 169.304 267.631 167.204C279.313 162.09 293.718 159.482 306.564 159.482C324.787 159.482 334.686 167.036 351.125 171.464C374.519 177.766 389.31 198.324 400.4 215.798C414.769 238.44 382.727 240.961 364.052 240.961C332.354 240.961 301.815 228.031 270.368 226.582C264.134 226.295 247.794 221.091 262.156 221.789C282.588 222.783 298.927 256.461 307.172 269.585C323.593 295.72 330.731 322.418 333.483 352.528C334.719 366.057 340.477 379.923 330.593 390.738C325.423 396.396 316.97 387.656 314.016 384.747C303.24 374.134 287.223 370.478 275.995 360.65C251.791 339.461 236.667 308.57 231.891 279.304C231.096 274.435 229.824 250.134 219.876 261.331C211.56 270.691 214.21 285.693 212.272 297.144C208.734 318.05 206.216 338.171 199.801 358.386C195.912 370.644 188.964 378.819 182.16 389.54C178.737 394.933 162.611 403.568 155.393 403.919C133.737 404.972 123.6 395.772 118.436 377.691C108.791 343.916 118.708 304.044 137.599 274.644C140.403 270.28 148.914 252.244 147.18 254.141C138.899 263.204 125.95 266.045 114.938 272.115C87.3173 287.339 52.4413 284.097 21.2548 284.097C-10.4739 284.097 9.21128 254.614 20.0382 240.828C30.9359 226.951 50.6171 219.116 67.7925 213.269C83.2865 207.994 100.359 197.373 116.916 195.562C129.461 194.189 134.037 202.618 121.174 202.618C103.949 202.618 94.1987 201.388 79.3509 193.032C40.9314 171.411 18.5762 149.837 5.43812 111.021C-1.77819 89.7002 32.367 63.1709 55.4737 74.4085C67.055 80.0409 73.4543 92.5453 82.8488 100.769C91.3132 108.179 97.7767 115.492 107.334 122.337C111.985 125.668 144.685 150.989 136.23 154.689" stroke="#8D4584" stroke-width="8" stroke-linecap="round"></path>
<path d="M163.605 185.843C163.921 183.635 164.494 184.256 166.343 183.447" stroke="#8D4584" stroke-width="8" stroke-linecap="round"></path>
<path d="M212.88 176.257C216.7 175.839 214.84 174.719 212.88 173.861" stroke="#8D4584" stroke-width="8" stroke-linecap="round"></path>
<path d="M163.605 207.411C176.547 207.411 189.753 205.015 201.931 205.015C209.186 205.015 234.686 205.181 237.518 200.222" stroke="#8D4584" stroke-width="8" stroke-linecap="round"></path>
<path d="M166.343 207.411C166.343 223.769 195.32 244.632 213.489 231.908C225.597 223.428 242.993 212.971 242.993 197.825" stroke="#8D4584" stroke-width="8" stroke-linecap="round"></path>
</svg><style>@media (prefers-color-scheme: light) { :root { filter: none; } }
@media (prefers-color-scheme: dark) { :root { filter: none; } }
</style></svg>